HIERARCHY
ROOT Hip
{
	OFFSET 0.000000 0.000000 0.000000 
	CHANNELS 6 Xposition Yposition Zposition Xrotation Yrotation Zrotation
	JOINT LowerSpine
	{
		OFFSET 0.000000 8.345300 -5.129200 
		CHANNELS 3 Xrotation Yrotation Zrotation
		JOINT MiddleSpine
		{
			OFFSET 10.856900 0.000000 0.000000 
			CHANNELS 3 Xrotation Yrotation Zrotation
			JOINT Chest
			{
				OFFSET 15.298400 0.000000 0.000000 
				CHANNELS 3 Xrotation Yrotation Zrotation
				JOINT Neck
				{
					OFFSET 25.661800 -0.598600 0.000000 
					CHANNELS 3 Xrotation Yrotation Zrotation
					JOINT Head
					{
						OFFSET 8.882900 0.000000 0.000000 
						CHANNELS 3 Xrotation Yrotation Zrotation
						End Site
						{
							OFFSET 19.739901 0.000000 0.000000 
						}
					}
				}
				JOINT RClavicle
				{
					OFFSET 23.687799 0.000000 3.158400 
					CHANNELS 3 Xrotation Yrotation Zrotation
					JOINT RShoulder
					{
						OFFSET -15.594500 -3.948000 0.987000 
						CHANNELS 3 Xrotation Yrotation Zrotation
						JOINT RForearm
						{
							OFFSET -31.337000 0.000000 0.197400 
							CHANNELS 3 Xrotation Yrotation Zrotation
							JOINT RHand
							{
								OFFSET -26.402100 0.000000 0.000000 
								CHANNELS 3 Xrotation Yrotation Zrotation
								End Site
								{
									OFFSET -15.791900 -0.987000 0.000000 
								}
							}
						}
					}
				}
				JOINT LClavicle
				{
					OFFSET 23.687799 0.000000 -3.158400 
					CHANNELS 3 Xrotation Yrotation Zrotation
					JOINT LShoulder
					{
						OFFSET -15.594500 -3.948000 -0.987000 
						CHANNELS 3 Xrotation Yrotation Zrotation
						JOINT LForearm
						{
							OFFSET -31.337000 0.000000 -0.197400 
							CHANNELS 3 Xrotation Yrotation Zrotation
							JOINT LHand
							{
								OFFSET -26.402100 0.000000 0.000000 
								CHANNELS 3 Xrotation Yrotation Zrotation
								End Site
								{
									OFFSET -15.791900 -0.987000 0.000000 
								}
							}
						}
					}
				}
			}
		}
	}
	JOINT RThigh
	{
		OFFSET -8.882900 0.448100 0.000000 
		CHANNELS 3 Xrotation Yrotation Zrotation
		JOINT RShin
		{
			OFFSET 43.131599 0.000000 -0.493500 
			CHANNELS 3 Xrotation Yrotation Zrotation
			JOINT RFoot
			{
				OFFSET 0.000000 -44.725601 -0.404700 
				CHANNELS 3 Xrotation Yrotation Zrotation
				JOINT RToe
				{
					OFFSET 0.000000 -3.933200 12.195300 
					CHANNELS 3 Xrotation Yrotation Zrotation
					End Site
					{
						OFFSET 6.772500 0.000000 0.000000 
					}
				}
			}
		}
	}
	JOINT LThigh
	{
		OFFSET 8.882900 0.448100 0.000000 
		CHANNELS 3 Xrotation Yrotation Zrotation
		JOINT LShin
		{
			OFFSET 43.131599 0.000000 0.493500 
			CHANNELS 3 Xrotation Yrotation Zrotation
			JOINT LFoot
			{
				OFFSET 0.000000 -44.725601 0.404700 
				CHANNELS 3 Xrotation Yrotation Zrotation
				JOINT LToe
				{
					OFFSET 0.000000 -3.933200 -12.195300 
					CHANNELS 3 Xrotation Yrotation Zrotation
					End Site
					{
						OFFSET 6.772500 0.000000 0.000000 
					}
				}
			}
		}
	}
}
MOTION
Frames: 13
Frame Time: 0.016949
4.298265 85.686676 12.723315 25.996321 32.326462 -25.361731 -89.999992 -90.000000 0.000000 1.252921 -0.516559 0.458613 4.166848 -1.694345 1.570350 0.000000 0.000000 0.000000 0.000000 0.000000 0.000000 89.996429 -0.310561 -85.827187 -21.978430 28.543280 47.577290 165.533905 67.301880 -164.650894 0.000000 0.000000 0.000000 -89.997993 0.360205 -85.160217 34.978310 22.360991 40.686790 -121.514297 -83.113518 -121.584702 0.000000 0.000000 0.000000 0.256070 71.313988 -109.374199 89.837242 23.616100 90.007240 -11.574040 -8.720256 -5.575533 171.536102 90.000000 0.000000 -63.912891 60.994572 -77.306870 -89.479393 -47.044048 90.174530 19.143049 -4.921491 3.742738 180.000000 -90.000000 0.000000 
3.926929 85.865952 12.540932 25.705290 31.040039 -24.927799 -89.999992 -90.000000 0.000000 1.233324 -0.558458 0.451748 4.122321 -1.783697 1.563765 0.000000 0.000000 0.000000 0.000000 0.000000 0.000000 89.995506 -0.263781 -86.455627 -29.183500 31.879311 47.810680 166.169098 66.373123 -165.234894 0.000000 0.000000 0.000000 -90.000877 0.425159 -84.286987 32.739651 22.770670 41.159290 -65.462700 -83.573128 -65.853607 0.000000 0.000000 0.000000 -0.464443 71.677292 -109.557503 89.834969 23.849440 90.007713 -11.367170 -7.757296 -4.940503 171.519608 90.000000 0.000000 -66.974709 62.100010 -74.266563 -89.486763 -46.623569 90.169601 18.527050 -5.046205 3.736541 180.059998 -90.000000 0.000000 
3.594994 86.014526 12.375247 25.220831 29.688181 -24.229250 -89.999992 -90.000000 0.000000 1.202169 -0.566357 0.455000 4.013412 -1.835358 1.567703 0.000000 0.000000 0.000000 0.000000 0.000000 0.000000 89.995102 -0.212476 -87.144707 -36.816891 35.218121 49.026192 165.988693 66.644249 -165.069504 0.000000 0.000000 0.000000 -90.004158 0.481224 -83.532631 29.208151 21.904499 41.049450 -31.369659 -78.920853 -32.108749 0.000000 0.000000 0.000000 -0.531999 72.010513 -110.365303 89.830627 24.290260 90.008614 -11.480450 -6.430174 -4.031973 171.728607 90.000000 0.000000 -70.405098 63.424610 -70.726624 -89.492683 -46.280849 90.165688 17.945629 -5.292704 3.853075 180.262604 -90.000000 0.000000 
3.233058 86.125511 12.297264 24.749861 28.680000 -23.559950 -89.999992 -90.000000 0.000000 1.150582 -0.564460 0.467567 3.860420 -1.842150 1.601696 0.000000 0.000000 0.000000 0.000000 0.000000 0.000000 89.995293 -0.162794 -87.811981 -44.051701 38.355221 50.676891 165.171005 67.800911 -164.315598 0.000000 0.000000 0.000000 -90.007370 0.526585 -82.921890 24.584970 19.964750 40.963020 -18.224400 -72.051353 -19.356779 0.000000 0.000000 0.000000 -0.455005 72.348587 -111.062401 89.826401 24.717951 90.009537 -11.868350 -5.296910 -3.267644 172.076904 90.000000 0.000000 -73.455208 64.463013 -67.457413 -89.498909 -45.916580 90.161598 17.462940 -5.740851 4.121351 180.450394 -90.000000 0.000000 
2.663623 86.298988 12.253778 24.382420 27.770390 -22.948080 -89.999992 -90.000000 0.000000 1.092452 -0.556077 0.492738 3.677265 -1.819009 1.680345 0.000000 0.000000 0.000000 0.000000 0.000000 0.000000 89.995918 -0.119332 -88.395798 -50.218781 41.335880 51.955971 163.937805 69.345833 -163.167404 0.000000 0.000000 0.000000 -90.010078 0.560569 -82.463921 19.356859 17.066759 41.163620 -12.241720 -64.616188 -13.784380 0.000000 0.000000 0.000000 -0.822589 72.733414 -111.297798 89.823624 24.998289 90.010178 -12.014560 -4.670313 -2.864266 172.352798 90.000000 0.000000 -76.481857 65.193260 -64.020393 -89.513206 -45.061459 90.152328 17.072041 -6.222381 4.386938 180.375595 -90.000000 0.000000 
1.830087 86.609566 12.158594 24.177259 26.701780 -22.441940 -89.999992 -90.000000 0.000000 1.030838 -0.550334 0.534429 3.467853 -1.801036 1.817078 0.000000 0.000000 0.000000 0.000000 0.000000 0.000000 89.996773 -0.083757 -88.873772 -55.201069 44.143230 52.729389 162.614700 70.780792 -161.923492 0.000000 0.000000 0.000000 -90.012154 0.584429 -82.142250 13.552560 13.350460 41.626572 -9.019506 -57.500961 -10.958950 0.000000 0.000000 0.000000 -2.038474 73.172752 -110.996803 89.820511 25.310209 90.010887 -11.469370 -4.531475 -2.729106 172.159607 90.000000 0.000000 -79.478119 65.488373 -60.329128 -89.540619 -43.351330 90.135063 16.619329 -6.328564 4.348005 180.155502 -90.000000 0.000000 
0.962152 86.988838 12.042110 24.070280 25.564581 -22.046350 -89.999992 -90.000000 0.000000 0.961172 -0.559446 0.596423 3.232636 -1.829412 2.022819 0.000000 0.000000 0.000000 0.000000 0.000000 0.000000 89.997673 -0.055032 -89.259720 -58.929340 46.573700 52.715309 161.468704 71.869926 -160.837799 0.000000 0.000000 0.000000 -90.013763 0.601943 -81.906013 7.969274 9.806622 42.448441 -7.150288 -51.460339 -9.435400 0.000000 0.000000 0.000000 -3.702461 73.618607 -110.354897 89.817352 25.626160 90.011627 -10.511810 -4.760287 -2.719937 171.713303 90.000000 0.000000 -81.437782 65.264557 -57.438251 -89.572578 -41.235191 90.115837 15.961150 -5.765228 3.844753 180.043106 -90.000000 0.000000 
0.313217 87.306412 11.985326 23.833500 24.369801 -21.533319 -89.999992 -90.000000 0.000000 0.884160 -0.590860 0.679117 2.977888 -1.930507 2.298400 0.000000 0.000000 0.000000 0.000000 0.000000 0.000000 89.998581 -0.030939 -89.583557 -61.355148 48.439732 51.637482 160.520599 72.679970 -159.934692 0.000000 0.000000 0.000000 -90.015388 0.618949 -81.676537 2.978041 6.843764 43.670731 -6.084280 -47.083092 -8.626966 0.000000 0.000000 0.000000 -4.801407 74.016296 -109.969704 89.816704 25.690540 90.011803 -9.522960 -5.616633 -2.975543 171.578400 90.000000 0.000000 -81.947906 64.820953 -55.875580 -89.596123 -39.588799 90.102364 15.256850 -4.434080 2.874064 180.030807 -90.000000 0.000000 
-0.152319 87.546097 11.973442 23.480539 23.184580 -20.867430 -89.999992 -90.000000 0.000000 0.804725 -0.642625 0.777918 2.718053 -2.099688 2.628266 0.000000 0.000000 0.000000 0.000000 0.000000 0.000000 89.999496 -0.009442 -89.872528 -62.629131 49.578251 49.896191 159.841202 73.215973 -159.285202 0.000000 0.000000 0.000000 -90.017632 0.641366 -81.373833 -2.495631 2.834961 44.855721 -5.297718 -43.304829 -8.068596 0.000000 0.000000 0.000000 -4.961136 74.390839 -110.179001 89.819031 25.458561 90.011230 -8.372664 -7.210826 -3.561531 171.515793 90.000000 0.000000 -82.200974 64.555290 -54.616879 -89.612000 -38.434929 90.093620 14.808410 -3.205920 2.032604 180.023895 -90.000000 0.000000 
-0.558654 87.759178 11.940957 23.259081 22.295139 -20.188999 -89.999992 -90.000000 0.000000 0.727521 -0.703190 0.884224 2.468119 -2.299494 2.982898 0.000000 0.000000 0.000000 0.000000 0.000000 0.000000 90.000481 0.011006 -90.147507 -62.940392 50.001190 47.776791 159.718796 73.308929 -159.167892 0.000000 0.000000 0.000000 -90.020981 0.672631 -80.951523 -8.482888 -2.822242 45.691059 -4.494348 -38.886410 -7.540128 0.000000 0.000000 0.000000 -4.234256 74.782784 -111.136803 89.822968 25.064529 90.010323 -7.148377 -8.738678 -4.100058 171.123306 90.000000 0.000000 -83.333199 64.745369 -52.776520 -89.626152 -37.376709 90.086067 14.551650 -3.247353 2.022831 180.070694 -90.000000 0.000000 
-0.896990 87.922050 11.864972 23.158550 21.520140 -19.332439 -89.999992 -90.000000 0.000000 0.654343 -0.755386 0.988247 2.232358 -2.472857 3.328928 0.000000 0.000000 0.000000 0.000000 0.000000 0.000000 90.001602 0.032120 -90.431503 -62.575699 50.204350 45.119511 160.271698 72.880440 -159.696899 0.000000 0.000000 0.000000 -90.025513 0.711820 -80.421623 -13.256880 -7.658733 46.640110 -3.872731 -35.036652 -7.166150 0.000000 0.000000 0.000000 -2.394118 75.165466 -113.416603 89.824272 24.933090 90.010033 -6.417671 -9.304276 -4.240679 170.776993 90.000000 0.000000 -84.703789 65.306183 -50.930141 -89.637917 -36.476269 90.079971 14.152590 -3.823701 2.344591 180.228302 -90.000000 0.000000 
-1.174325 87.987427 11.757090 22.964979 20.454651 -18.121861 -89.999992 -90.000000 0.000000 0.582433 -0.782257 1.081870 1.999258 -2.563370 3.638696 0.000000 0.000000 0.000000 0.000000 0.000000 0.000000 90.002998 0.056122 -90.754433 -61.854721 50.328640 42.032879 161.430893 71.903763 -160.801895 0.000000 0.000000 0.000000 -90.030724 0.753649 -79.855309 -15.875680 -9.724240 48.251068 -3.625884 -33.397049 -7.027327 0.000000 0.000000 0.000000 0.556609 75.481003 -117.270897 89.818298 25.531370 90.011414 -6.481527 -8.837783 -4.007442 170.838104 90.000000 0.000000 -85.389687 65.958572 -49.721981 -89.645660 -35.871689 90.076050 13.576160 -3.597735 2.170049 180.400696 -90.000000 0.000000 
-1.473561 87.959206 11.628004 22.714540 19.321779 -16.807011 -89.999992 -90.000000 0.000000 0.505893 -0.772161 1.159333 1.747247 -2.532615 3.892647 0.000000 0.000000 0.000000 0.000000 0.000000 0.000000 90.004860 0.084986 -91.142921 -60.884220 49.887180 38.954441 163.086105 70.293129 -162.367996 0.000000 0.000000 0.000000 -90.035660 0.790301 -79.358589 -17.168329 -10.039050 50.324131 -3.597114 -33.201759 -7.011531 0.000000 0.000000 0.000000 3.917027 75.711166 -121.782600 89.807167 26.634439 90.014168 -7.173194 -8.085811 -3.732355 171.301193 90.000000 0.000000 -85.696022 66.576141 -48.978539 -89.649048 -35.604691 90.074364 13.108510 -2.917159 1.719556 180.565903 -90.000000 0.000000 
